Patient4_TMGait_0pt6_02_right_28_GRF.mot
version=1
nRows=26
nColumns=19
inDegrees=no
endheader
time	F1x	F1y	F1z	M1x	M1y	M1z	F2x	F2y	F2z	M2x	M2y	M2z	EC1x	EC1y	EC1z	EC2x	EC2y	EC2z
33.64	-5.0792	725.8908	80.849	-231.8504	-81.1899	796.3084	13.7733	-4.9198	1.4901	-1.5413	-5.4707	-13.5439	-0.0592	0.0182	-0.0073	-0.0462	0.0165	0.9585
33.6524	0.1699	721.5996	77.0956	-230.149	-76.7809	789.7575	9.0083	-2.1671	1.0358	-0.62617	-3.6561	-7.5497	-0.0592	0.0182	-0.0073	-0.0462	0.0165	0.9585
33.6649	5.0157	718.3784	73.9182	-228.7564	-72.7931	783.9094	5.0116	0.21502	0.60606	0.18026	-2.0669	-2.4461	-0.0592	0.0182	-0.0073	-0.0462	0.0165	0.9585
33.6773	9.1862	716.8309	71.5083	-227.8833	-69.4613	779.4684	1.9774	2.0917	0.2536	0.82586	-0.82213	1.4996	-0.0592	0.0182	-0.0073	-0.0462	0.0165	0.9585
33.6897	12.592	717.1639	69.9158	-227.6064	-66.879	776.7408	-0.10309	3.4257	-0.013129	1.2953	0.065928	4.2517	-0.0592	0.0182	-0.0073	-0.0462	0.0165	0.9585
33.7021	15.3184	719.1869	69.0413	-227.8712	-64.9805	775.5687	-1.3811	4.278	-0.19855	1.603	0.64362	5.9682	-0.0592	0.0182	-0.0073	-0.0462	0.0165	0.9585
33.7146	17.485	722.3904	68.7583	-228.5156	-63.6644	775.4628	-2.0495	4.6994	-0.32133	1.762	0.98648	6.8181	-0.0592	0.0182	-0.0073	-0.0462	0.0165	0.9585
33.727	19.2773	726.124	68.8792	-229.3329	-62.7537	775.7531	-2.2974	4.719	-0.39988	1.7774	1.1686	6.9465	-0.0592	0.0182	-0.0073	-0.0462	0.0165	0.9585
33.7394	20.8297	729.7209	69.2428	-230.1084	-62.094	775.7542	-2.292	4.3445	-0.45269	1.6427	1.2551	6.4477	-0.0592	0.0182	-0.0073	-0.0462	0.0165	0.9585
33.7519	22.3026	732.6156	69.6714	-230.6639	-61.5042	774.8896	-2.1272	3.5195	-0.49431	1.3324	1.2845	5.297	-0.0592	0.0182	-0.0073	-0.0462	0.0165	0.9585
33.7643	23.8386	734.4389	70.0404	-230.8894	-60.8468	772.7997	-1.8849	2.1771	-0.53075	0.81425	1.2815	3.4559	-0.0592	0.0182	-0.0073	-0.0462	0.0165	0.9585
33.7767	25.5987	735.0886	70.2391	-230.7626	-59.989	769.3753	-1.5768	0.21648	-0.55664	0.04953	1.2377	0.81614	-0.0592	0.0182	-0.0073	-0.0462	0.0165	0.9585
33.7891	27.7217	734.7041	70.2199	-230.3302	-58.8501	764.752	-1.228	-2.3811	-0.5599	-0.97052	1.1358	-2.6068	-0.0592	0.0182	-0.0073	-0.0462	0.0165	0.9585
33.8016	30.3489	733.627	69.967	-229.6953	-57.3797	759.2784	-0.80511	-5.5549	-0.51661	-2.2145	0.92811	-6.7327	-0.0592	0.0182	-0.0073	-0.0462	0.0165	0.9585
33.814	33.5817	732.261	69.5289	-228.9767	-55.5892	753.359	-0.31944	-8.9896	-0.39398	-3.5573	0.57185	-11.1553	-0.0592	0.0182	-0.0073	-0.0462	0.0165	0.9585
33.8264	37.5053	730.9957	68.978	-228.2891	-53.5151	747.3799	0.25577	-12.0617	-0.14437	-4.7489	0.0083129	-15.1025	-0.0592	0.0182	-0.0073	-0.0462	0.0165	0.9585
33.8389	42.1574	730.0936	68.4065	-227.7097	-51.2204	741.6132	0.86979	-13.6913	0.28167	-5.3599	-0.79857	-17.1922	-0.0592	0.0182	-0.0073	-0.0462	0.0165	0.9585
33.8513	47.521	729.583	67.8705	-227.2468	-48.757	736.1189	1.4535	-12.2533	0.92444	-4.7422	-1.8621	-15.3458	-0.0592	0.0182	-0.0073	-0.0462	0.0165	0.9585
33.8637	53.4681	729.1711	67.3794	-226.8159	-46.1618	730.6732	1.842	-5.4955	1.8053	-2.0053	-3.135	-6.6737	-0.0592	0.0182	-0.0073	-0.0462	0.0165	0.9585
33.8761	59.7999	728.1867	66.8719	-226.2215	-43.433	724.6968	1.7804	9.3755	2.9138	3.9513	-4.4851	12.3954	-0.0592	0.0182	-0.0073	-0.0462	0.0165	0.9585
33.8886	66.1814	725.5302	66.226	-225.1405	-40.5538	717.2329	0.91481	35.4501	4.1591	14.3341	-5.6344	45.81	-0.0592	0.0182	-0.0073	-0.0462	0.0165	0.9585
33.901	72.2413	719.6807	65.2648	-223.1224	-37.4831	706.9128	-1.2411	75.5305	5.3336	30.2251	-6.108	97.1555	-0.0592	0.0182	-0.0073	-0.0462	0.0165	0.9585
33.9134	77.5135	708.7647	63.755	-219.6073	-34.1565	692.0622	-5.2349	131.1498	6.055	52.1934	-5.1901	168.3751	-0.0592	0.0182	-0.0073	-0.0462	0.0165	0.9585
33.9259	81.5309	690.6789	61.4265	-213.9625	-30.4862	670.7877	-11.7125	201.204	5.748	79.7464	-1.8991	258.0211	-0.0592	0.0182	-0.0073	-0.0462	0.0165	0.9585
33.9383	83.7683	663.4035	58.0264	-205.5725	-26.4218	641.2905	-21.2974	280.2212	3.7487	110.6637	4.8236	359.0249	-0.0592	0.0182	-0.0073	-0.0462	0.0165	0.9585
33.9507	83.7745	625.4121	53.4128	-193.9637	-22.0009	602.1999	-33.2949	357.9408	-0.72827	140.8868	15.5183	458.1365	-0.0592	0.0182	-0.0073	-0.0462	0.0165	0.9585
